<svg xmlns="http://www.w3.org/2000/svg" viewBox="0 0 1600 900" role="img" aria-label="Academic study graphic">
  <defs>
    <linearGradient id="bg" x1="0" y1="0" x2="1" y2="1">
      <stop offset="0" stop-color="#1e3a8a"/>
      <stop offset="0.55" stop-color="#2563eb"/>
      <stop offset="1" stop-color="#67e8f9"/>
    </linearGradient>
    <filter id="shadow" x="-20%" y="-20%" width="140%" height="140%">
      <feDropShadow dx="0" dy="24" stdDeviation="22" flood-color="#0f172a" flood-opacity=".22"/>
    </filter>
  </defs>
  <rect width="1600" height="900" fill="url(#bg)"/>
  <circle cx="1280" cy="150" r="210" fill="#dbeafe" opacity=".18"/>
  <circle cx="200" cy="780" r="260" fill="#0f172a" opacity=".18"/>
  <g fill="none" stroke="#bfdbfe" stroke-width="3" opacity=".45">
    <path d="M140 160h520M140 232h420M140 304h480"/>
    <path d="M1140 610h270M1140 682h210M1140 754h250"/>
  </g>
  <g filter="url(#shadow)">
    <path d="M440 610c200-72 330-72 520 0V280c-190-58-320-58-520 0z" fill="#f8fafc"/>
    <path d="M960 610c120-60 230-72 360-34V246c-130-34-240-24-360 34z" fill="#e0f2fe"/>
    <path d="M440 610c-120-60-230-72-360-34V246c130-34 240-24 360 34z" fill="#dbeafe"/>
    <path d="M800 254v400" stroke="#93c5fd" stroke-width="10"/>
    <g stroke="#1d4ed8" stroke-width="14" stroke-linecap="round" opacity=".8">
      <path d="M548 372h160M548 442h180M548 512h130"/>
      <path d="M902 374h210M902 444h170M902 514h205"/>
    </g>
  </g>
  <g transform="translate(1050 190) rotate(-10)">
    <rect x="0" y="0" width="310" height="190" rx="24" fill="#facc15"/>
    <rect x="38" y="52" width="234" height="26" rx="13" fill="#92400e" opacity=".35"/>
    <rect x="38" y="108" width="160" height="26" rx="13" fill="#92400e" opacity=".35"/>
  </g>
</svg>
