<svg xmlns="http://www.w3.org/2000/svg" viewBox="0 0 1600 900" role="img" aria-label="IT development graphic">
  <defs>
    <linearGradient id="bg" x1="0" y1="0" x2="1" y2="1">
      <stop offset="0" stop-color="#0f172a"/>
      <stop offset=".52" stop-color="#0369a1"/>
      <stop offset="1" stop-color="#34d399"/>
    </linearGradient>
    <filter id="shadow"><feDropShadow dx="0" dy="24" stdDeviation="24" flood-color="#020617" flood-opacity=".32"/></filter>
  </defs>
  <rect width="1600" height="900" fill="url(#bg)"/>
  <g opacity=".22" fill="none" stroke="#bae6fd" stroke-width="4">
    <path d="M130 170h300v180H130zM1170 540h300v180h-300z"/>
    <path d="M430 260h280M890 630h280M710 260c96 0 116 370 180 370"/>
  </g>
  <g filter="url(#shadow)" transform="translate(380 190)">
    <rect width="840" height="480" rx="34" fill="#e0f2fe"/>
    <rect x="36" y="54" width="768" height="354" rx="18" fill="#0f172a"/>
    <circle cx="82" cy="27" r="9" fill="#ef4444"/>
    <circle cx="116" cy="27" r="9" fill="#f59e0b"/>
    <circle cx="150" cy="27" r="9" fill="#22c55e"/>
    <g fill="none" stroke-linecap="round" stroke-width="18">
      <path d="M252 182l-94 86 94 86" stroke="#38bdf8"/>
      <path d="M588 182l94 86-94 86" stroke="#38bdf8"/>
      <path d="M468 154l-104 228" stroke="#86efac"/>
    </g>
    <rect x="300" y="438" width="240" height="42" rx="21" fill="#bae6fd"/>
  </g>
</svg>
