<svg xmlns="http://www.w3.org/2000/svg" viewBox="0 0 1600 900" role="img" aria-label="Music performance graphic">
  <defs>
    <linearGradient id="bg" x1="0" y1="0" x2="1" y2="1">
      <stop offset="0" stop-color="#581c87"/>
      <stop offset=".5" stop-color="#be123c"/>
      <stop offset="1" stop-color="#f59e0b"/>
    </linearGradient>
    <filter id="shadow"><feDropShadow dx="0" dy="26" stdDeviation="24" flood-color="#1f102a" flood-opacity=".32"/></filter>
  </defs>
  <rect width="1600" height="900" fill="url(#bg)"/>
  <path d="M0 675c230-90 420-110 650-38 240 76 440 58 680-38 96-38 185-57 270-60v361H0z" fill="#0f172a" opacity=".24"/>
  <g opacity=".35" stroke="#fde68a" stroke-width="6" fill="none">
    <path d="M180 180c90 60 180 60 270 0s180-60 270 0"/>
    <path d="M850 250c80-50 160-50 240 0s160 50 240 0"/>
  </g>
  <g filter="url(#shadow)" transform="translate(520 160)">
    <path d="M370 0v460c0 86-70 156-156 156S58 546 58 460s70-156 156-156c44 0 84 18 112 48V80l410-80v150z" fill="#f8fafc"/>
    <path d="M326 120l410-80" stroke="#fbbf24" stroke-width="42" stroke-linecap="round"/>
    <circle cx="214" cy="460" r="74" fill="#be123c"/>
  </g>
</svg>
