<svg xmlns="http://www.w3.org/2000/svg" viewBox="0 0 1600 900" role="img" aria-label="Networking graphic">
  <defs>
    <linearGradient id="bg" x1="0" y1="0" x2="1" y2="1">
      <stop offset="0" stop-color="#334155"/>
      <stop offset=".5" stop-color="#0f766e"/>
      <stop offset="1" stop-color="#84cc16"/>
    </linearGradient>
    <filter id="shadow"><feDropShadow dx="0" dy="18" stdDeviation="18" flood-color="#020617" flood-opacity=".26"/></filter>
  </defs>
  <rect width="1600" height="900" fill="url(#bg)"/>
  <g stroke="#ccfbf1" stroke-width="18" stroke-linecap="round" opacity=".58">
    <path d="M430 280l300 170-300 180M730 450h420M1150 300L730 450l420 150"/>
  </g>
  <g filter="url(#shadow)" fill="#f8fafc">
    <circle cx="430" cy="280" r="86"/>
    <circle cx="430" cy="630" r="86"/>
    <circle cx="730" cy="450" r="104"/>
    <circle cx="1150" cy="300" r="86"/>
    <circle cx="1150" cy="600" r="86"/>
  </g>
  <g fill="#0f766e">
    <circle cx="430" cy="258" r="24"/><path d="M380 332c18-36 82-36 100 0z"/>
    <circle cx="730" cy="420" r="30"/><path d="M666 514c22-48 106-48 128 0z"/>
    <circle cx="1150" cy="278" r="24"/><path d="M1100 352c18-36 82-36 100 0z"/>
    <circle cx="430" cy="608" r="24"/><path d="M380 682c18-36 82-36 100 0z"/>
    <circle cx="1150" cy="578" r="24"/><path d="M1100 652c18-36 82-36 100 0z"/>
  </g>
</svg>
