<svg xmlns="http://www.w3.org/2000/svg" viewBox="0 0 1600 900" role="img" aria-label="Sports exercise graphic">
  <defs>
    <linearGradient id="bg" x1="0" y1="0" x2="1" y2="1">
      <stop offset="0" stop-color="#064e3b"/>
      <stop offset=".48" stop-color="#16a34a"/>
      <stop offset="1" stop-color="#bef264"/>
    </linearGradient>
    <filter id="shadow"><feDropShadow dx="0" dy="24" stdDeviation="24" flood-color="#052e16" flood-opacity=".3"/></filter>
  </defs>
  <rect width="1600" height="900" fill="url(#bg)"/>
  <g fill="none" stroke="#dcfce7" stroke-width="8" opacity=".5">
    <rect x="170" y="140" width="1260" height="620" rx="26"/>
    <path d="M800 140v620M170 450h1260"/>
    <circle cx="800" cy="450" r="122"/>
  </g>
  <g filter="url(#shadow)" transform="translate(600 250)">
    <circle cx="200" cy="200" r="200" fill="#f8fafc"/>
    <path d="M200 0v400M0 200h400" stroke="#16a34a" stroke-width="20"/>
    <path d="M64 64c90 54 182 54 272 0M64 336c90-54 182-54 272 0" fill="none" stroke="#16a34a" stroke-width="20" stroke-linecap="round"/>
    <path d="M64 64c54 90 54 182 0 272M336 64c-54 90-54 182 0 272" fill="none" stroke="#16a34a" stroke-width="20" stroke-linecap="round"/>
  </g>
</svg>
