<svg xmlns="http://www.w3.org/2000/svg" viewBox="0 0 1600 900" role="img" aria-label="Startup business graphic">
  <defs>
    <linearGradient id="bg" x1="0" y1="0" x2="1" y2="1">
      <stop offset="0" stop-color="#1e1b4b"/>
      <stop offset=".52" stop-color="#7c3aed"/>
      <stop offset="1" stop-color="#facc15"/>
    </linearGradient>
    <filter id="shadow"><feDropShadow dx="0" dy="28" stdDeviation="24" flood-color="#1e1b4b" flood-opacity=".32"/></filter>
  </defs>
  <rect width="1600" height="900" fill="url(#bg)"/>
  <g opacity=".28" stroke="#fef3c7" stroke-width="5" fill="none">
    <path d="M180 680c190-260 420-330 690-210 190 84 350 38 520-210"/>
    <path d="M1240 252h150v150"/>
  </g>
  <g filter="url(#shadow)" transform="translate(570 150)">
    <path d="M230 0c150 126 230 284 230 472l-230 138L0 472C0 284 80 126 230 0z" fill="#f8fafc"/>
    <circle cx="230" cy="214" r="86" fill="#7c3aed"/>
    <path d="M120 510l-86 160 160-72M340 510l86 160-160-72" fill="#fde68a"/>
    <path d="M188 382h84l-42 160z" fill="#f97316"/>
  </g>
</svg>
